<svg xmlns="http://www.w3.org/2000/svg"
     width="8.5in"
     height="7in"
     viewBox="0 0 816 672">

  <rect x="0" y="0"
        width="816"
        height="672"
        fill="#00FF00"/>

  <g transform="translate(216, 144)">
    <svg xmlns="http://www.w3.org/2000/svg" viewBox="0 0 23 23" shape-rendering="crispEdges" width="384" height="384"><path fill="#ffffff" d="M0 0h23v23H0z"/><path stroke="#000000" d="M1 1.5h7m2 0h1m4 0h7M1 2.5h1m5 0h1m2 0h1m1 0h1m2 0h1m5 0h1M1 3.5h1m1 0h3m1 0h1m1 0h2m2 0h1m1 0h1m1 0h3m1 0h1M1 4.5h1m1 0h3m1 0h1m1 0h1m2 0h2m1 0h1m1 0h3m1 0h1M1 5.5h1m1 0h3m1 0h1m2 0h1m1 0h1m2 0h1m1 0h3m1 0h1M1 6.5h1m5 0h1m3 0h2m2 0h1m5 0h1M1 7.5h7m1 0h1m1 0h1m1 0h1m1 0h7M13 8.5h1M4 9.5h2m1 0h2m2 0h3m4 0h2M2 10.5h1m2 0h1m3 0h2m2 0h3m1 0h3M2 11.5h2m2 0h2m1 0h1m2 0h3m2 0h1m1 0h3M2 12.5h1m1 0h3m1 0h2m2 0h1m1 0h2m3 0h1m1 0h1M3 13.5h3m1 0h1m1 0h7m2 0h1m1 0h2M9 14.5h2m1 0h3m3 0h2m1 0h1M1 15.5h7m1 0h1m3 0h1m2 0h2M1 16.5h1m5 0h1m5 0h1m1 0h5M1 17.5h1m1 0h3m1 0h1m1 0h1m2 0h1m1 0h1m5 0h2M1 18.5h1m1 0h3m1 0h1m1 0h1m1 0h1m1 0h3m3 0h1M1 19.5h1m1 0h3m1 0h1m2 0h3m1 0h2m1 0h1m1 0h3M1 20.5h1m5 0h1m4 0h1m1 0h8M1 21.5h7m2 0h1m3 0h1m2 0h1"/></svg>
  </g>
</svg>