<svg viewBox="0 0 500 500" xmlns="http://www.w3.org/2000/svg"><rect width="100%" height="100%" fill="white"></rect><rect x="0" y="0" width="12.195121951219512" height="12.195121951219512" fill="black"></rect><rect x="12.195121951219512" y="0" width="12.195121951219512" height="12.195121951219512" fill="black"></rect><rect x="24.390243902439025" y="0" width="12.195121951219512" height="12.195121951219512" fill="black"></rect><rect x="36.58536585365854" y="0" width="12.195121951219512" height="12.195121951219512" fill="black"></rect><rect x="48.78048780487805" y="0" width="12.195121951219512" height="12.195121951219512" fill="black"></rect><rect x="60.97560975609756" y="0" width="12.195121951219512" height="12.195121951219512" fill="black"></rect><rect x="73.17073170731707" y="0" width="12.195121951219512" height="12.195121951219512" fill="black"></rect><circle cx="103.65853658536585" cy="6.097560975609756" r="4.878048780487806" fill="black"></circle><circle cx="201.21951219512195" cy="6.097560975609756" r="4.878048780487806" fill="black"></circle><circle cx="225.60975609756096" cy="6.097560975609756" r="4.878048780487806" fill="black"></circle><circle cx="250" cy="6.097560975609756" r="4.878048780487806" fill="black"></circle><circle cx="262.19512195121956" cy="6.097560975609756" r="4.878048780487806" fill="black"></circle><circle cx="347.56097560975616" cy="6.097560975609756" r="4.878048780487806" fill="black"></circle><circle cx="384.1463414634147" cy="6.097560975609756" r="4.878048780487806" fill="black"></circle><circle cx="396.3414634146342" cy="6.097560975609756" r="4.878048780487806" fill="black"></circle><rect x="414.6341463414634" y="0" width="12.195121951219512" height="12.195121951219512" fill="black"></rect><rect x="426.8292682926829" y="0" width="12.195121951219512" height="12.195121951219512" fill="black"></rect><rect x="439.0243902439024" y="0" width="12.195121951219512" height="12.195121951219512" fill="black"></rect><rect x="451.219512195122" y="0" width="12.195121951219512" height="12.195121951219512" fill="black"></rect><rect x="463.4146341463415" y="0" width="12.195121951219512" height="12.195121951219512" fill="black"></rect><rect x="475.609756097561" y="0" width="12.195121951219512" height="12.195121951219512" fill="black"></rect><rect x="487.8048780487805" y="0" width="12.195121951219512" height="12.195121951219512" fill="black"></rect><rect x="0" y="12.195121951219512" width="12.195121951219512" height="12.195121951219512" fill="black"></rect><rect x="73.17073170731707" y="12.195121951219512" width="12.195121951219512" height="12.195121951219512" fill="black"></rect><circle cx="103.65853658536585" cy="18.29268292682927" r="4.878048780487806" fill="black"></circle><circle cx="128.0487804878049" cy="18.29268292682927" r="4.878048780487806" fill="black"></circle><circle cx="152.4390243902439" cy="18.29268292682927" r="4.878048780487806" fill="black"></circle><circle cx="164.6341463414634" cy="18.29268292682927" r="4.878048780487806" fill="black"></circle><circle cx="176.82926829268294" cy="18.29268292682927" r="4.878048780487806" fill="black"></circle><circle cx="189.02439024390245" cy="18.29268292682927" r="4.878048780487806" fill="black"></circle><circle cx="237.8048780487805" cy="18.29268292682927" r="4.878048780487806" fill="black"></circle><circle cx="298.7804878048781" cy="18.29268292682927" r="4.878048780487806" fill="black"></circle><circle cx="335.3658536585366" cy="18.29268292682927" r="4.878048780487806" fill="black"></circle><circle cx="347.56097560975616" cy="18.29268292682927" r="4.878048780487806" fill="black"></circle><circle cx="396.3414634146342" cy="18.29268292682927" r="4.878048780487806" fill="black"></circle><rect x="414.6341463414634" y="12.195121951219512" width="12.195121951219512" height="12.195121951219512" fill="black"></rect><rect x="487.8048780487805" y="12.195121951219512" width="12.195121951219512" height="12.195121951219512" fill="black"></rect><rect x="0" y="24.390243902439025" width="12.195121951219512" height="12.195121951219512" fill="black"></rect><rect x="24.390243902439025" y="24.390243902439025" width="12.195121951219512" height="12.195121951219512" fill="black"></rect><rect x="36.58536585365854" y="24.390243902439025" width="12.195121951219512" height="12.195121951219512" fill="black"></rect><rect x="48.78048780487805" y="24.390243902439025" width="12.195121951219512" height="12.195121951219512" fill="black"></rect><rect x="73.17073170731707" y="24.390243902439025" width="12.195121951219512" height="12.195121951219512" fill="black"></rect><circle cx="103.65853658536585" cy="30.48780487804878" r="4.878048780487806" fill="black"></circle><circle cx="164.6341463414634" cy="30.48780487804878" r="4.878048780487806" fill="black"></circle><circle cx="201.21951219512195" cy="30.48780487804878" r="4.878048780487806" fill="black"></circle><circle cx="213.41463414634146" cy="30.48780487804878" r="4.878048780487806" fill="black"></circle><circle cx="225.60975609756096" cy="30.48780487804878" r="4.878048780487806" fill="black"></circle><circle cx="237.8048780487805" cy="30.48780487804878" r="4.878048780487806" fill="black"></circle><circle cx="250" cy="30.48780487804878" r="4.878048780487806" fill="black"></circle><circle cx="262.19512195121956" cy="30.48780487804878" r="4.878048780487806" fill="black"></circle><circle cx="274.39024390243907" cy="30.48780487804878" r="4.878048780487806" fill="black"></circle><circle cx="286.5853658536586" cy="30.48780487804878" r="4.878048780487806" fill="black"></circle><circle cx="323.1707317073171" cy="30.48780487804878" r="4.878048780487806" fill="black"></circle><circle cx="335.3658536585366" cy="30.48780487804878" r="4.878048780487806" fill="black"></circle><circle cx="347.56097560975616" cy="30.48780487804878" r="4.878048780487806" fill="black"></circle><circle cx="384.1463414634147" cy="30.48780487804878" r="4.878048780487806" fill="black"></circle><circle cx="396.3414634146342" cy="30.48780487804878" r="4.878048780487806" fill="black"></circle><rect x="414.6341463414634" y="24.390243902439025" width="12.195121951219512" height="12.195121951219512" fill="black"></rect><rect x="439.0243902439024" y="24.390243902439025" width="12.195121951219512" height="12.195121951219512" fill="black"></rect><rect x="451.219512195122" y="24.390243902439025" width="12.195121951219512" height="12.195121951219512" fill="black"></rect><rect x="463.4146341463415" y="24.390243902439025" width="12.195121951219512" height="12.195121951219512" fill="black"></rect><rect x="487.8048780487805" y="24.390243902439025" width="12.195121951219512" height="12.195121951219512" fill="black"></rect><rect x="0" y="36.58536585365854" width="12.195121951219512" height="12.195121951219512" fill="black"></rect><rect x="24.390243902439025" y="36.58536585365854" width="12.195121951219512" height="12.195121951219512" fill="black"></rect><rect x="36.58536585365854" y="36.58536585365854" width="12.195121951219512" height="12.195121951219512" fill="black"></rect><rect x="48.78048780487805" y="36.58536585365854" width="12.195121951219512" height="12.195121951219512" fill="black"></rect><rect x="73.17073170731707" y="36.58536585365854" width="12.195121951219512" height="12.195121951219512" fill="black"></rect><circle cx="128.0487804878049" cy="42.6829268292683" r="4.878048780487806" fill="black"></circle><circle cx="140.2439024390244" cy="42.6829268292683" r="4.878048780487806" fill="black"></circle><circle cx="189.02439024390245" cy="42.6829268292683" r="4.878048780487806" fill="black"></circle><circle cx="213.41463414634146" cy="42.6829268292683" r="4.878048780487806" fill="black"></circle><circle cx="225.60975609756096" cy="42.6829268292683" r="4.878048780487806" fill="black"></circle><circle cx="250" cy="42.6829268292683" r="4.878048780487806" fill="black"></circle><circle cx="274.39024390243907" cy="42.6829268292683" r="4.878048780487806" fill="black"></circle><circle cx="298.7804878048781" cy="42.6829268292683" r="4.878048780487806" fill="black"></circle><circle cx="335.3658536585366" cy="42.6829268292683" r="4.878048780487806" fill="black"></circle><circle cx="359.75609756097566" cy="42.6829268292683" r="4.878048780487806" fill="black"></circle><rect x="414.6341463414634" y="36.58536585365854" width="12.195121951219512" height="12.195121951219512" fill="black"></rect><rect x="439.0243902439024" y="36.58536585365854" width="12.195121951219512" height="12.195121951219512" fill="black"></rect><rect x="451.219512195122" y="36.58536585365854" width="12.195121951219512" height="12.195121951219512" fill="black"></rect><rect x="463.4146341463415" y="36.58536585365854" width="12.195121951219512" height="12.195121951219512" fill="black"></rect><rect x="487.8048780487805" y="36.58536585365854" width="12.195121951219512" height="12.195121951219512" fill="black"></rect><rect x="0" y="48.78048780487805" width="12.195121951219512" height="12.195121951219512" fill="black"></rect><rect x="24.390243902439025" y="48.78048780487805" width="12.195121951219512" height="12.195121951219512" fill="black"></rect><rect x="36.58536585365854" y="48.78048780487805" width="12.195121951219512" height="12.195121951219512" fill="black"></rect><rect x="48.78048780487805" y="48.78048780487805" width="12.195121951219512" height="12.195121951219512" fill="black"></rect><rect x="73.17073170731707" y="48.78048780487805" width="12.195121951219512" height="12.195121951219512" fill="black"></rect><circle cx="128.0487804878049" cy="54.8780487804878" r="4.878048780487806" fill="black"></circle><circle cx="152.4390243902439" cy="54.8780487804878" r="4.878048780487806" fill="black"></circle><circle cx="176.82926829268294" cy="54.8780487804878" r="4.878048780487806" fill="black"></circle><circle cx="189.02439024390245" cy="54.8780487804878" r="4.878048780487806" fill="black"></circle><circle cx="201.21951219512195" cy="54.8780487804878" r="4.878048780487806" fill="black"></circle><circle cx="213.41463414634146" cy="54.8780487804878" r="4.878048780487806" fill="black"></circle><circle cx="225.60975609756096" cy="54.8780487804878" r="4.878048780487806" fill="black"></circle><circle cx="237.8048780487805" cy="54.8780487804878" r="4.878048780487806" fill="black"></circle><circle cx="274.39024390243907" cy="54.8780487804878" r="4.878048780487806" fill="black"></circle><circle cx="286.5853658536586" cy="54.8780487804878" r="4.878048780487806" fill="black"></circle><circle cx="298.7804878048781" cy="54.8780487804878" r="4.878048780487806" fill="black"></circle><circle cx="323.1707317073171" cy="54.8780487804878" r="4.878048780487806" fill="black"></circle><circle cx="347.56097560975616" cy="54.8780487804878" r="4.878048780487806" fill="black"></circle><circle cx="384.1463414634147" cy="54.8780487804878" r="4.878048780487806" fill="black"></circle><circle cx="396.3414634146342" cy="54.8780487804878" r="4.878048780487806" fill="black"></circle><rect x="414.6341463414634" y="48.78048780487805" width="12.195121951219512" height="12.195121951219512" fill="black"></rect><rect x="439.0243902439024" y="48.78048780487805" width="12.195121951219512" height="12.195121951219512" fill="black"></rect><rect x="451.219512195122" y="48.78048780487805" width="12.195121951219512" height="12.195121951219512" fill="black"></rect><rect x="463.4146341463415" y="48.78048780487805" width="12.195121951219512" height="12.195121951219512" fill="black"></rect><rect x="487.8048780487805" y="48.78048780487805" width="12.195121951219512" height="12.195121951219512" fill="black"></rect><rect x="0" y="60.97560975609756" width="12.195121951219512" height="12.195121951219512" fill="black"></rect><rect x="73.17073170731707" y="60.97560975609756" width="12.195121951219512" height="12.195121951219512" fill="black"></rect><circle cx="103.65853658536585" cy="67.07317073170732" r="4.878048780487806" fill="black"></circle><circle cx="140.2439024390244" cy="67.07317073170732" r="4.878048780487806" fill="black"></circle><circle cx="152.4390243902439" cy="67.07317073170732" r="4.878048780487806" fill="black"></circle><circle cx="164.6341463414634" cy="67.07317073170732" r="4.878048780487806" fill="black"></circle><circle cx="225.60975609756096" cy="67.07317073170732" r="4.878048780487806" fill="black"></circle><circle cx="250" cy="67.07317073170732" r="4.878048780487806" fill="black"></circle><circle cx="262.19512195121956" cy="67.07317073170732" r="4.878048780487806" fill="black"></circle><circle cx="274.39024390243907" cy="67.07317073170732" r="4.878048780487806" fill="black"></circle><circle cx="310.9756097560976" cy="67.07317073170732" r="4.878048780487806" fill="black"></circle><circle cx="335.3658536585366" cy="67.07317073170732" r="4.878048780487806" fill="black"></circle><circle cx="347.56097560975616" cy="67.07317073170732" r="4.878048780487806" fill="black"></circle><circle cx="396.3414634146342" cy="67.07317073170732" r="4.878048780487806" fill="black"></circle><rect x="414.6341463414634" y="60.97560975609756" width="12.195121951219512" height="12.195121951219512" fill="black"></rect><rect x="487.8048780487805" y="60.97560975609756" width="12.195121951219512" height="12.195121951219512" fill="black"></rect><rect x="0" y="73.17073170731707" width="12.195121951219512" height="12.195121951219512" fill="black"></rect><rect x="12.195121951219512" y="73.17073170731707" width="12.195121951219512" height="12.195121951219512" fill="black"></rect><rect x="24.390243902439025" y="73.17073170731707" width="12.195121951219512" height="12.195121951219512" fill="black"></rect><rect x="36.58536585365854" y="73.17073170731707" width="12.195121951219512" height="12.195121951219512" fill="black"></rect><rect x="48.78048780487805" y="73.17073170731707" width="12.195121951219512" height="12.195121951219512" fill="black"></rect><rect x="60.97560975609756" y="73.17073170731707" width="12.195121951219512" height="12.195121951219512" fill="black"></rect><rect x="73.17073170731707" y="73.17073170731707" width="12.195121951219512" height="12.195121951219512" fill="black"></rect><circle cx="103.65853658536585" cy="79.26829268292683" r="4.878048780487806" fill="black"></circle><circle cx="128.0487804878049" cy="79.26829268292683" r="4.878048780487806" fill="black"></circle><circle cx="152.4390243902439" cy="79.26829268292683" r="4.878048780487806" fill="black"></circle><circle cx="176.82926829268294" cy="79.26829268292683" r="4.878048780487806" fill="black"></circle><circle cx="201.21951219512195" cy="79.26829268292683" r="4.878048780487806" fill="black"></circle><circle cx="225.60975609756096" cy="79.26829268292683" r="4.878048780487806" fill="black"></circle><circle cx="250" cy="79.26829268292683" r="4.878048780487806" fill="black"></circle><circle cx="274.39024390243907" cy="79.26829268292683" r="4.878048780487806" fill="black"></circle><circle cx="298.7804878048781" cy="79.26829268292683" r="4.878048780487806" fill="black"></circle><circle cx="323.1707317073171" cy="79.26829268292683" r="4.878048780487806" fill="black"></circle><circle cx="347.56097560975616" cy="79.26829268292683" r="4.878048780487806" fill="black"></circle><circle cx="371.95121951219517" cy="79.26829268292683" r="4.878048780487806" fill="black"></circle><circle cx="396.3414634146342" cy="79.26829268292683" r="4.878048780487806" fill="black"></circle><rect x="414.6341463414634" y="73.17073170731707" width="12.195121951219512" height="12.195121951219512" fill="black"></rect><rect x="426.8292682926829" y="73.17073170731707" width="12.195121951219512" height="12.195121951219512" fill="black"></rect><rect x="439.0243902439024" y="73.17073170731707" width="12.195121951219512" height="12.195121951219512" fill="black"></rect><rect x="451.219512195122" y="73.17073170731707" width="12.195121951219512" height="12.195121951219512" fill="black"></rect><rect x="463.4146341463415" y="73.17073170731707" width="12.195121951219512" height="12.195121951219512" fill="black"></rect><rect x="475.609756097561" y="73.17073170731707" width="12.195121951219512" height="12.195121951219512" fill="black"></rect><rect x="487.8048780487805" y="73.17073170731707" width="12.195121951219512" height="12.195121951219512" fill="black"></rect><circle cx="103.65853658536585" cy="91.46341463414635" r="4.878048780487806" fill="black"></circle><circle cx="115.85365853658536" cy="91.46341463414635" r="4.878048780487806" fill="black"></circle><circle cx="164.6341463414634" cy="91.46341463414635" r="4.878048780487806" fill="black"></circle><circle cx="225.60975609756096" cy="91.46341463414635" r="4.878048780487806" fill="black"></circle><circle cx="262.19512195121956" cy="91.46341463414635" r="4.878048780487806" fill="black"></circle><circle cx="298.7804878048781" cy="91.46341463414635" r="4.878048780487806" fill="black"></circle><circle cx="310.9756097560976" cy="91.46341463414635" r="4.878048780487806" fill="black"></circle><circle cx="30.48780487804878" cy="103.65853658536585" r="4.878048780487806" fill="black"></circle><circle cx="42.6829268292683" cy="103.65853658536585" r="4.878048780487806" fill="black"></circle><circle cx="54.8780487804878" cy="103.65853658536585" r="4.878048780487806" fill="black"></circle><circle cx="79.26829268292683" cy="103.65853658536585" r="4.878048780487806" fill="black"></circle><circle cx="103.65853658536585" cy="103.65853658536585" r="4.878048780487806" fill="black"></circle><circle cx="128.0487804878049" cy="103.65853658536585" r="4.878048780487806" fill="black"></circle><circle cx="152.4390243902439" cy="103.65853658536585" r="4.878048780487806" fill="black"></circle><circle cx="225.60975609756096" cy="103.65853658536585" r="4.878048780487806" fill="black"></circle><circle cx="237.8048780487805" cy="103.65853658536585" r="4.878048780487806" fill="black"></circle><circle cx="286.5853658536586" cy="103.65853658536585" r="4.878048780487806" fill="black"></circle><circle cx="298.7804878048781" cy="103.65853658536585" r="4.878048780487806" fill="black"></circle><circle cx="310.9756097560976" cy="103.65853658536585" r="4.878048780487806" fill="black"></circle><circle cx="335.3658536585366" cy="103.65853658536585" r="4.878048780487806" fill="black"></circle><circle cx="359.75609756097566" cy="103.65853658536585" r="4.878048780487806" fill="black"></circle><circle cx="384.1463414634147" cy="103.65853658536585" r="4.878048780487806" fill="black"></circle><circle cx="408.5365853658537" cy="103.65853658536585" r="4.878048780487806" fill="black"></circle><circle cx="420.7317073170732" cy="103.65853658536585" r="4.878048780487806" fill="black"></circle><circle cx="432.9268292682927" cy="103.65853658536585" r="4.878048780487806" fill="black"></circle><circle cx="469.51219512195127" cy="103.65853658536585" r="4.878048780487806" fill="black"></circle><circle cx="481.70731707317077" cy="103.65853658536585" r="4.878048780487806" fill="black"></circle><circle cx="493.9024390243903" cy="103.65853658536585" r="4.878048780487806" fill="black"></circle><circle cx="18.29268292682927" cy="115.85365853658536" r="4.878048780487806" fill="black"></circle><circle cx="42.6829268292683" cy="115.85365853658536" r="4.878048780487806" fill="black"></circle><circle cx="67.07317073170732" cy="115.85365853658536" r="4.878048780487806" fill="black"></circle><circle cx="91.46341463414635" cy="115.85365853658536" r="4.878048780487806" fill="black"></circle><circle cx="140.2439024390244" cy="115.85365853658536" r="4.878048780487806" fill="black"></circle><circle cx="152.4390243902439" cy="115.85365853658536" r="4.878048780487806" fill="black"></circle><circle cx="176.82926829268294" cy="115.85365853658536" r="4.878048780487806" fill="black"></circle><circle cx="189.02439024390245" cy="115.85365853658536" r="4.878048780487806" fill="black"></circle><circle cx="213.41463414634146" cy="115.85365853658536" r="4.878048780487806" fill="black"></circle><circle cx="237.8048780487805" cy="115.85365853658536" r="4.878048780487806" fill="black"></circle><circle cx="286.5853658536586" cy="115.85365853658536" r="4.878048780487806" fill="black"></circle><circle cx="298.7804878048781" cy="115.85365853658536" r="4.878048780487806" fill="black"></circle><circle cx="310.9756097560976" cy="115.85365853658536" r="4.878048780487806" fill="black"></circle><circle cx="347.56097560975616" cy="115.85365853658536" r="4.878048780487806" fill="black"></circle><circle cx="359.75609756097566" cy="115.85365853658536" r="4.878048780487806" fill="black"></circle><circle cx="371.95121951219517" cy="115.85365853658536" r="4.878048780487806" fill="black"></circle><circle cx="384.1463414634147" cy="115.85365853658536" r="4.878048780487806" fill="black"></circle><circle cx="396.3414634146342" cy="115.85365853658536" r="4.878048780487806" fill="black"></circle><circle cx="408.5365853658537" cy="115.85365853658536" r="4.878048780487806" fill="black"></circle><circle cx="420.7317073170732" cy="115.85365853658536" r="4.878048780487806" fill="black"></circle><circle cx="432.9268292682927" cy="115.85365853658536" r="4.878048780487806" fill="black"></circle><circle cx="445.1219512195122" cy="115.85365853658536" r="4.878048780487806" fill="black"></circle><circle cx="469.51219512195127" cy="115.85365853658536" r="4.878048780487806" fill="black"></circle><circle cx="493.9024390243903" cy="115.85365853658536" r="4.878048780487806" fill="black"></circle><circle cx="6.097560975609756" cy="128.0487804878049" r="4.878048780487806" fill="black"></circle><circle cx="42.6829268292683" cy="128.0487804878049" r="4.878048780487806" fill="black"></circle><circle cx="54.8780487804878" cy="128.0487804878049" r="4.878048780487806" fill="black"></circle><circle cx="79.26829268292683" cy="128.0487804878049" r="4.878048780487806" fill="black"></circle><circle cx="152.4390243902439" cy="128.0487804878049" r="4.878048780487806" fill="black"></circle><circle cx="164.6341463414634" cy="128.0487804878049" r="4.878048780487806" fill="black"></circle><circle cx="176.82926829268294" cy="128.0487804878049" r="4.878048780487806" fill="black"></circle><circle cx="201.21951219512195" cy="128.0487804878049" r="4.878048780487806" fill="black"></circle><circle cx="225.60975609756096" cy="128.0487804878049" r="4.878048780487806" fill="black"></circle><circle cx="237.8048780487805" cy="128.0487804878049" r="4.878048780487806" fill="black"></circle><circle cx="250" cy="128.0487804878049" r="4.878048780487806" fill="black"></circle><circle cx="274.39024390243907" cy="128.0487804878049" r="4.878048780487806" fill="black"></circle><circle cx="298.7804878048781" cy="128.0487804878049" r="4.878048780487806" fill="black"></circle><circle cx="310.9756097560976" cy="128.0487804878049" r="4.878048780487806" fill="black"></circle><circle cx="323.1707317073171" cy="128.0487804878049" r="4.878048780487806" fill="black"></circle><circle cx="335.3658536585366" cy="128.0487804878049" r="4.878048780487806" fill="black"></circle><circle cx="359.75609756097566" cy="128.0487804878049" r="4.878048780487806" fill="black"></circle><circle cx="396.3414634146342" cy="128.0487804878049" r="4.878048780487806" fill="black"></circle><circle cx="408.5365853658537" cy="128.0487804878049" r="4.878048780487806" fill="black"></circle><circle cx="432.9268292682927" cy="128.0487804878049" r="4.878048780487806" fill="black"></circle><circle cx="18.29268292682927" cy="140.2439024390244" r="4.878048780487806" fill="black"></circle><circle cx="30.48780487804878" cy="140.2439024390244" r="4.878048780487806" fill="black"></circle><circle cx="67.07317073170732" cy="140.2439024390244" r="4.878048780487806" fill="black"></circle><circle cx="103.65853658536585" cy="140.2439024390244" r="4.878048780487806" fill="black"></circle><circle cx="128.0487804878049" cy="140.2439024390244" r="4.878048780487806" fill="black"></circle><circle cx="189.02439024390245" cy="140.2439024390244" r="4.878048780487806" fill="black"></circle><circle cx="201.21951219512195" cy="140.2439024390244" r="4.878048780487806" fill="black"></circle><circle cx="250" cy="140.2439024390244" r="4.878048780487806" fill="black"></circle><circle cx="262.19512195121956" cy="140.2439024390244" r="4.878048780487806" fill="black"></circle><circle cx="286.5853658536586" cy="140.2439024390244" r="4.878048780487806" fill="black"></circle><circle cx="298.7804878048781" cy="140.2439024390244" r="4.878048780487806" fill="black"></circle><circle cx="310.9756097560976" cy="140.2439024390244" r="4.878048780487806" fill="black"></circle><circle cx="323.1707317073171" cy="140.2439024390244" r="4.878048780487806" fill="black"></circle><circle cx="384.1463414634147" cy="140.2439024390244" r="4.878048780487806" fill="black"></circle><circle cx="396.3414634146342" cy="140.2439024390244" r="4.878048780487806" fill="black"></circle><circle cx="408.5365853658537" cy="140.2439024390244" r="4.878048780487806" fill="black"></circle><circle cx="432.9268292682927" cy="140.2439024390244" r="4.878048780487806" fill="black"></circle><circle cx="457.31707317073176" cy="140.2439024390244" r="4.878048780487806" fill="black"></circle><circle cx="481.70731707317077" cy="140.2439024390244" r="4.878048780487806" fill="black"></circle><circle cx="18.29268292682927" cy="152.4390243902439" r="4.878048780487806" fill="black"></circle><circle cx="30.48780487804878" cy="152.4390243902439" r="4.878048780487806" fill="black"></circle><circle cx="54.8780487804878" cy="152.4390243902439" r="4.878048780487806" fill="black"></circle><circle cx="79.26829268292683" cy="152.4390243902439" r="4.878048780487806" fill="black"></circle><circle cx="115.85365853658536" cy="152.4390243902439" r="4.878048780487806" fill="black"></circle><circle cx="128.0487804878049" cy="152.4390243902439" r="4.878048780487806" fill="black"></circle><circle cx="140.2439024390244" cy="152.4390243902439" r="4.878048780487806" fill="black"></circle><circle cx="213.41463414634146" cy="152.4390243902439" r="4.878048780487806" fill="black"></circle><circle cx="237.8048780487805" cy="152.4390243902439" r="4.878048780487806" fill="black"></circle><circle cx="286.5853658536586" cy="152.4390243902439" r="4.878048780487806" fill="black"></circle><circle cx="359.75609756097566" cy="152.4390243902439" r="4.878048780487806" fill="black"></circle><circle cx="371.95121951219517" cy="152.4390243902439" r="4.878048780487806" fill="black"></circle><circle cx="384.1463414634147" cy="152.4390243902439" r="4.878048780487806" fill="black"></circle><circle cx="396.3414634146342" cy="152.4390243902439" r="4.878048780487806" fill="black"></circle><circle cx="432.9268292682927" cy="152.4390243902439" r="4.878048780487806" fill="black"></circle><circle cx="457.31707317073176" cy="152.4390243902439" r="4.878048780487806" fill="black"></circle><circle cx="469.51219512195127" cy="152.4390243902439" r="4.878048780487806" fill="black"></circle><circle cx="30.48780487804878" cy="164.6341463414634" r="4.878048780487806" fill="black"></circle><circle cx="42.6829268292683" cy="164.6341463414634" r="4.878048780487806" fill="black"></circle><circle cx="54.8780487804878" cy="164.6341463414634" r="4.878048780487806" fill="black"></circle><circle cx="91.46341463414635" cy="164.6341463414634" r="4.878048780487806" fill="black"></circle><circle cx="103.65853658536585" cy="164.6341463414634" r="4.878048780487806" fill="black"></circle><circle cx="115.85365853658536" cy="164.6341463414634" r="4.878048780487806" fill="black"></circle><circle cx="152.4390243902439" cy="164.6341463414634" r="4.878048780487806" fill="black"></circle><circle cx="189.02439024390245" cy="164.6341463414634" r="4.878048780487806" fill="black"></circle><circle cx="237.8048780487805" cy="164.6341463414634" r="4.878048780487806" fill="black"></circle><circle cx="262.19512195121956" cy="164.6341463414634" r="4.878048780487806" fill="black"></circle><circle cx="286.5853658536586" cy="164.6341463414634" r="4.878048780487806" fill="black"></circle><circle cx="310.9756097560976" cy="164.6341463414634" r="4.878048780487806" fill="black"></circle><circle cx="335.3658536585366" cy="164.6341463414634" r="4.878048780487806" fill="black"></circle><circle cx="347.56097560975616" cy="164.6341463414634" r="4.878048780487806" fill="black"></circle><circle cx="371.95121951219517" cy="164.6341463414634" r="4.878048780487806" fill="black"></circle><circle cx="384.1463414634147" cy="164.6341463414634" r="4.878048780487806" fill="black"></circle><circle cx="396.3414634146342" cy="164.6341463414634" r="4.878048780487806" fill="black"></circle><circle cx="408.5365853658537" cy="164.6341463414634" r="4.878048780487806" fill="black"></circle><circle cx="420.7317073170732" cy="164.6341463414634" r="4.878048780487806" fill="black"></circle><circle cx="432.9268292682927" cy="164.6341463414634" r="4.878048780487806" fill="black"></circle><circle cx="445.1219512195122" cy="164.6341463414634" r="4.878048780487806" fill="black"></circle><circle cx="457.31707317073176" cy="164.6341463414634" r="4.878048780487806" fill="black"></circle><circle cx="481.70731707317077" cy="164.6341463414634" r="4.878048780487806" fill="black"></circle><circle cx="493.9024390243903" cy="164.6341463414634" r="4.878048780487806" fill="black"></circle><circle cx="18.29268292682927" cy="176.82926829268294" r="4.878048780487806" fill="black"></circle><circle cx="30.48780487804878" cy="176.82926829268294" r="4.878048780487806" fill="black"></circle><circle cx="54.8780487804878" cy="176.82926829268294" r="4.878048780487806" fill="black"></circle><circle cx="79.26829268292683" cy="176.82926829268294" r="4.878048780487806" fill="black"></circle><circle cx="91.46341463414635" cy="176.82926829268294" r="4.878048780487806" fill="black"></circle><circle cx="152.4390243902439" cy="176.82926829268294" r="4.878048780487806" fill="black"></circle><circle cx="176.82926829268294" cy="176.82926829268294" r="4.878048780487806" fill="black"></circle><circle cx="189.02439024390245" cy="176.82926829268294" r="4.878048780487806" fill="black"></circle><circle cx="250" cy="176.82926829268294" r="4.878048780487806" fill="black"></circle><circle cx="262.19512195121956" cy="176.82926829268294" r="4.878048780487806" fill="black"></circle><circle cx="298.7804878048781" cy="176.82926829268294" r="4.878048780487806" fill="black"></circle><circle cx="323.1707317073171" cy="176.82926829268294" r="4.878048780487806" fill="black"></circle><circle cx="359.75609756097566" cy="176.82926829268294" r="4.878048780487806" fill="black"></circle><circle cx="371.95121951219517" cy="176.82926829268294" r="4.878048780487806" fill="black"></circle><circle cx="396.3414634146342" cy="176.82926829268294" r="4.878048780487806" fill="black"></circle><circle cx="408.5365853658537" cy="176.82926829268294" r="4.878048780487806" fill="black"></circle><circle cx="445.1219512195122" cy="176.82926829268294" r="4.878048780487806" fill="black"></circle><circle cx="457.31707317073176" cy="176.82926829268294" r="4.878048780487806" fill="black"></circle><circle cx="469.51219512195127" cy="176.82926829268294" r="4.878048780487806" fill="black"></circle><circle cx="6.097560975609756" cy="189.02439024390245" r="4.878048780487806" fill="black"></circle><circle cx="18.29268292682927" cy="189.02439024390245" r="4.878048780487806" fill="black"></circle><circle cx="54.8780487804878" cy="189.02439024390245" r="4.878048780487806" fill="black"></circle><circle cx="91.46341463414635" cy="189.02439024390245" r="4.878048780487806" fill="black"></circle><circle cx="115.85365853658536" cy="189.02439024390245" r="4.878048780487806" fill="black"></circle><circle cx="140.2439024390244" cy="189.02439024390245" r="4.878048780487806" fill="black"></circle><circle cx="152.4390243902439" cy="189.02439024390245" r="4.878048780487806" fill="black"></circle><circle cx="164.6341463414634" cy="189.02439024390245" r="4.878048780487806" fill="black"></circle><circle cx="176.82926829268294" cy="189.02439024390245" r="4.878048780487806" fill="black"></circle><circle cx="213.41463414634146" cy="189.02439024390245" r="4.878048780487806" fill="black"></circle><circle cx="262.19512195121956" cy="189.02439024390245" r="4.878048780487806" fill="black"></circle><circle cx="274.39024390243907" cy="189.02439024390245" r="4.878048780487806" fill="black"></circle><circle cx="286.5853658536586" cy="189.02439024390245" r="4.878048780487806" fill="black"></circle><circle cx="347.56097560975616" cy="189.02439024390245" r="4.878048780487806" fill="black"></circle><circle cx="371.95121951219517" cy="189.02439024390245" r="4.878048780487806" fill="black"></circle><circle cx="384.1463414634147" cy="189.02439024390245" r="4.878048780487806" fill="black"></circle><circle cx="396.3414634146342" cy="189.02439024390245" r="4.878048780487806" fill="black"></circle><circle cx="420.7317073170732" cy="189.02439024390245" r="4.878048780487806" fill="black"></circle><circle cx="457.31707317073176" cy="189.02439024390245" r="4.878048780487806" fill="black"></circle><circle cx="481.70731707317077" cy="189.02439024390245" r="4.878048780487806" fill="black"></circle><circle cx="493.9024390243903" cy="189.02439024390245" r="4.878048780487806" fill="black"></circle><circle cx="6.097560975609756" cy="201.21951219512195" r="4.878048780487806" fill="black"></circle><circle cx="79.26829268292683" cy="201.21951219512195" r="4.878048780487806" fill="black"></circle><circle cx="115.85365853658536" cy="201.21951219512195" r="4.878048780487806" fill="black"></circle><circle cx="140.2439024390244" cy="201.21951219512195" r="4.878048780487806" fill="black"></circle><circle cx="152.4390243902439" cy="201.21951219512195" r="4.878048780487806" fill="black"></circle><circle cx="164.6341463414634" cy="201.21951219512195" r="4.878048780487806" fill="black"></circle><circle cx="201.21951219512195" cy="201.21951219512195" r="4.878048780487806" fill="black"></circle><circle cx="213.41463414634146" cy="201.21951219512195" r="4.878048780487806" fill="black"></circle><circle cx="274.39024390243907" cy="201.21951219512195" r="4.878048780487806" fill="black"></circle><circle cx="298.7804878048781" cy="201.21951219512195" r="4.878048780487806" fill="black"></circle><circle cx="310.9756097560976" cy="201.21951219512195" r="4.878048780487806" fill="black"></circle><circle cx="323.1707317073171" cy="201.21951219512195" r="4.878048780487806" fill="black"></circle><circle cx="359.75609756097566" cy="201.21951219512195" r="4.878048780487806" fill="black"></circle><circle cx="384.1463414634147" cy="201.21951219512195" r="4.878048780487806" fill="black"></circle><circle cx="408.5365853658537" cy="201.21951219512195" r="4.878048780487806" fill="black"></circle><circle cx="432.9268292682927" cy="201.21951219512195" r="4.878048780487806" fill="black"></circle><circle cx="469.51219512195127" cy="201.21951219512195" r="4.878048780487806" fill="black"></circle><circle cx="493.9024390243903" cy="201.21951219512195" r="4.878048780487806" fill="black"></circle><circle cx="6.097560975609756" cy="213.41463414634146" r="4.878048780487806" fill="black"></circle><circle cx="18.29268292682927" cy="213.41463414634146" r="4.878048780487806" fill="black"></circle><circle cx="54.8780487804878" cy="213.41463414634146" r="4.878048780487806" fill="black"></circle><circle cx="67.07317073170732" cy="213.41463414634146" r="4.878048780487806" fill="black"></circle><circle cx="103.65853658536585" cy="213.41463414634146" r="4.878048780487806" fill="black"></circle><circle cx="140.2439024390244" cy="213.41463414634146" r="4.878048780487806" fill="black"></circle><circle cx="152.4390243902439" cy="213.41463414634146" r="4.878048780487806" fill="black"></circle><circle cx="164.6341463414634" cy="213.41463414634146" r="4.878048780487806" fill="black"></circle><circle cx="189.02439024390245" cy="213.41463414634146" r="4.878048780487806" fill="black"></circle><circle cx="201.21951219512195" cy="213.41463414634146" r="4.878048780487806" fill="black"></circle><circle cx="213.41463414634146" cy="213.41463414634146" r="4.878048780487806" fill="black"></circle><circle cx="237.8048780487805" cy="213.41463414634146" r="4.878048780487806" fill="black"></circle><circle cx="262.19512195121956" cy="213.41463414634146" r="4.878048780487806" fill="black"></circle><circle cx="274.39024390243907" cy="213.41463414634146" r="4.878048780487806" fill="black"></circle><circle cx="310.9756097560976" cy="213.41463414634146" r="4.878048780487806" fill="black"></circle><circle cx="347.56097560975616" cy="213.41463414634146" r="4.878048780487806" fill="black"></circle><circle cx="371.95121951219517" cy="213.41463414634146" r="4.878048780487806" fill="black"></circle><circle cx="384.1463414634147" cy="213.41463414634146" r="4.878048780487806" fill="black"></circle><circle cx="396.3414634146342" cy="213.41463414634146" r="4.878048780487806" fill="black"></circle><circle cx="420.7317073170732" cy="213.41463414634146" r="4.878048780487806" fill="black"></circle><circle cx="432.9268292682927" cy="213.41463414634146" r="4.878048780487806" fill="black"></circle><circle cx="445.1219512195122" cy="213.41463414634146" r="4.878048780487806" fill="black"></circle><circle cx="457.31707317073176" cy="213.41463414634146" r="4.878048780487806" fill="black"></circle><circle cx="469.51219512195127" cy="213.41463414634146" r="4.878048780487806" fill="black"></circle><circle cx="481.70731707317077" cy="213.41463414634146" r="4.878048780487806" fill="black"></circle><circle cx="493.9024390243903" cy="213.41463414634146" r="4.878048780487806" fill="black"></circle><circle cx="6.097560975609756" cy="225.60975609756096" r="4.878048780487806" fill="black"></circle><circle cx="18.29268292682927" cy="225.60975609756096" r="4.878048780487806" fill="black"></circle><circle cx="30.48780487804878" cy="225.60975609756096" r="4.878048780487806" fill="black"></circle><circle cx="54.8780487804878" cy="225.60975609756096" r="4.878048780487806" fill="black"></circle><circle cx="79.26829268292683" cy="225.60975609756096" r="4.878048780487806" fill="black"></circle><circle cx="115.85365853658536" cy="225.60975609756096" r="4.878048780487806" fill="black"></circle><circle cx="140.2439024390244" cy="225.60975609756096" r="4.878048780487806" fill="black"></circle><circle cx="152.4390243902439" cy="225.60975609756096" r="4.878048780487806" fill="black"></circle><circle cx="164.6341463414634" cy="225.60975609756096" r="4.878048780487806" fill="black"></circle><circle cx="176.82926829268294" cy="225.60975609756096" r="4.878048780487806" fill="black"></circle><circle cx="201.21951219512195" cy="225.60975609756096" r="4.878048780487806" fill="black"></circle><circle cx="225.60975609756096" cy="225.60975609756096" r="4.878048780487806" fill="black"></circle><circle cx="237.8048780487805" cy="225.60975609756096" r="4.878048780487806" fill="black"></circle><circle cx="274.39024390243907" cy="225.60975609756096" r="4.878048780487806" fill="black"></circle><circle cx="286.5853658536586" cy="225.60975609756096" r="4.878048780487806" fill="black"></circle><circle cx="310.9756097560976" cy="225.60975609756096" r="4.878048780487806" fill="black"></circle><circle cx="323.1707317073171" cy="225.60975609756096" r="4.878048780487806" fill="black"></circle><circle cx="335.3658536585366" cy="225.60975609756096" r="4.878048780487806" fill="black"></circle><circle cx="347.56097560975616" cy="225.60975609756096" r="4.878048780487806" fill="black"></circle><circle cx="359.75609756097566" cy="225.60975609756096" r="4.878048780487806" fill="black"></circle><circle cx="371.95121951219517" cy="225.60975609756096" r="4.878048780487806" fill="black"></circle><circle cx="396.3414634146342" cy="225.60975609756096" r="4.878048780487806" fill="black"></circle><circle cx="445.1219512195122" cy="225.60975609756096" r="4.878048780487806" fill="black"></circle><circle cx="457.31707317073176" cy="225.60975609756096" r="4.878048780487806" fill="black"></circle><circle cx="469.51219512195127" cy="225.60975609756096" r="4.878048780487806" fill="black"></circle><circle cx="30.48780487804878" cy="237.8048780487805" r="4.878048780487806" fill="black"></circle><circle cx="54.8780487804878" cy="237.8048780487805" r="4.878048780487806" fill="black"></circle><circle cx="67.07317073170732" cy="237.8048780487805" r="4.878048780487806" fill="black"></circle><circle cx="103.65853658536585" cy="237.8048780487805" r="4.878048780487806" fill="black"></circle><circle cx="128.0487804878049" cy="237.8048780487805" r="4.878048780487806" fill="black"></circle><circle cx="176.82926829268294" cy="237.8048780487805" r="4.878048780487806" fill="black"></circle><circle cx="189.02439024390245" cy="237.8048780487805" r="4.878048780487806" fill="black"></circle><circle cx="250" cy="237.8048780487805" r="4.878048780487806" fill="black"></circle><circle cx="274.39024390243907" cy="237.8048780487805" r="4.878048780487806" fill="black"></circle><circle cx="286.5853658536586" cy="237.8048780487805" r="4.878048780487806" fill="black"></circle><circle cx="298.7804878048781" cy="237.8048780487805" r="4.878048780487806" fill="black"></circle><circle cx="310.9756097560976" cy="237.8048780487805" r="4.878048780487806" fill="black"></circle><circle cx="323.1707317073171" cy="237.8048780487805" r="4.878048780487806" fill="black"></circle><circle cx="335.3658536585366" cy="237.8048780487805" r="4.878048780487806" fill="black"></circle><circle cx="384.1463414634147" cy="237.8048780487805" r="4.878048780487806" fill="black"></circle><circle cx="396.3414634146342" cy="237.8048780487805" r="4.878048780487806" fill="black"></circle><circle cx="445.1219512195122" cy="237.8048780487805" r="4.878048780487806" fill="black"></circle><circle cx="457.31707317073176" cy="237.8048780487805" r="4.878048780487806" fill="black"></circle><circle cx="481.70731707317077" cy="237.8048780487805" r="4.878048780487806" fill="black"></circle><circle cx="493.9024390243903" cy="237.8048780487805" r="4.878048780487806" fill="black"></circle><circle cx="18.29268292682927" cy="250" r="4.878048780487806" fill="black"></circle><circle cx="42.6829268292683" cy="250" r="4.878048780487806" fill="black"></circle><circle cx="54.8780487804878" cy="250" r="4.878048780487806" fill="black"></circle><circle cx="67.07317073170732" cy="250" r="4.878048780487806" fill="black"></circle><circle cx="79.26829268292683" cy="250" r="4.878048780487806" fill="black"></circle><circle cx="225.60975609756096" cy="250" r="4.878048780487806" fill="black"></circle><circle cx="237.8048780487805" cy="250" r="4.878048780487806" fill="black"></circle><circle cx="250" cy="250" r="4.878048780487806" fill="black"></circle><circle cx="262.19512195121956" cy="250" r="4.878048780487806" fill="black"></circle><circle cx="298.7804878048781" cy="250" r="4.878048780487806" fill="black"></circle><circle cx="323.1707317073171" cy="250" r="4.878048780487806" fill="black"></circle><circle cx="359.75609756097566" cy="250" r="4.878048780487806" fill="black"></circle><circle cx="384.1463414634147" cy="250" r="4.878048780487806" fill="black"></circle><circle cx="432.9268292682927" cy="250" r="4.878048780487806" fill="black"></circle><circle cx="469.51219512195127" cy="250" r="4.878048780487806" fill="black"></circle><circle cx="493.9024390243903" cy="250" r="4.878048780487806" fill="black"></circle><circle cx="6.097560975609756" cy="262.19512195121956" r="4.878048780487806" fill="black"></circle><circle cx="18.29268292682927" cy="262.19512195121956" r="4.878048780487806" fill="black"></circle><circle cx="42.6829268292683" cy="262.19512195121956" r="4.878048780487806" fill="black"></circle><circle cx="54.8780487804878" cy="262.19512195121956" r="4.878048780487806" fill="black"></circle><circle cx="67.07317073170732" cy="262.19512195121956" r="4.878048780487806" fill="black"></circle><circle cx="91.46341463414635" cy="262.19512195121956" r="4.878048780487806" fill="black"></circle><circle cx="103.65853658536585" cy="262.19512195121956" r="4.878048780487806" fill="black"></circle><circle cx="140.2439024390244" cy="262.19512195121956" r="4.878048780487806" fill="black"></circle><circle cx="152.4390243902439" cy="262.19512195121956" r="4.878048780487806" fill="black"></circle><circle cx="176.82926829268294" cy="262.19512195121956" r="4.878048780487806" fill="black"></circle><circle cx="189.02439024390245" cy="262.19512195121956" r="4.878048780487806" fill="black"></circle><circle cx="225.60975609756096" cy="262.19512195121956" r="4.878048780487806" fill="black"></circle><circle cx="286.5853658536586" cy="262.19512195121956" r="4.878048780487806" fill="black"></circle><circle cx="310.9756097560976" cy="262.19512195121956" r="4.878048780487806" fill="black"></circle><circle cx="347.56097560975616" cy="262.19512195121956" r="4.878048780487806" fill="black"></circle><circle cx="359.75609756097566" cy="262.19512195121956" r="4.878048780487806" fill="black"></circle><circle cx="371.95121951219517" cy="262.19512195121956" r="4.878048780487806" fill="black"></circle><circle cx="384.1463414634147" cy="262.19512195121956" r="4.878048780487806" fill="black"></circle><circle cx="396.3414634146342" cy="262.19512195121956" r="4.878048780487806" fill="black"></circle><circle cx="408.5365853658537" cy="262.19512195121956" r="4.878048780487806" fill="black"></circle><circle cx="420.7317073170732" cy="262.19512195121956" r="4.878048780487806" fill="black"></circle><circle cx="432.9268292682927" cy="262.19512195121956" r="4.878048780487806" fill="black"></circle><circle cx="445.1219512195122" cy="262.19512195121956" r="4.878048780487806" fill="black"></circle><circle cx="481.70731707317077" cy="262.19512195121956" r="4.878048780487806" fill="black"></circle><circle cx="493.9024390243903" cy="262.19512195121956" r="4.878048780487806" fill="black"></circle><circle cx="18.29268292682927" cy="274.39024390243907" r="4.878048780487806" fill="black"></circle><circle cx="30.48780487804878" cy="274.39024390243907" r="4.878048780487806" fill="black"></circle><circle cx="79.26829268292683" cy="274.39024390243907" r="4.878048780487806" fill="black"></circle><circle cx="91.46341463414635" cy="274.39024390243907" r="4.878048780487806" fill="black"></circle><circle cx="103.65853658536585" cy="274.39024390243907" r="4.878048780487806" fill="black"></circle><circle cx="152.4390243902439" cy="274.39024390243907" r="4.878048780487806" fill="black"></circle><circle cx="164.6341463414634" cy="274.39024390243907" r="4.878048780487806" fill="black"></circle><circle cx="176.82926829268294" cy="274.39024390243907" r="4.878048780487806" fill="black"></circle><circle cx="201.21951219512195" cy="274.39024390243907" r="4.878048780487806" fill="black"></circle><circle cx="237.8048780487805" cy="274.39024390243907" r="4.878048780487806" fill="black"></circle><circle cx="262.19512195121956" cy="274.39024390243907" r="4.878048780487806" fill="black"></circle><circle cx="274.39024390243907" cy="274.39024390243907" r="4.878048780487806" fill="black"></circle><circle cx="286.5853658536586" cy="274.39024390243907" r="4.878048780487806" fill="black"></circle><circle cx="298.7804878048781" cy="274.39024390243907" r="4.878048780487806" fill="black"></circle><circle cx="310.9756097560976" cy="274.39024390243907" r="4.878048780487806" fill="black"></circle><circle cx="335.3658536585366" cy="274.39024390243907" r="4.878048780487806" fill="black"></circle><circle cx="347.56097560975616" cy="274.39024390243907" r="4.878048780487806" fill="black"></circle><circle cx="420.7317073170732" cy="274.39024390243907" r="4.878048780487806" fill="black"></circle><circle cx="432.9268292682927" cy="274.39024390243907" r="4.878048780487806" fill="black"></circle><circle cx="6.097560975609756" cy="286.5853658536586" r="4.878048780487806" fill="black"></circle><circle cx="18.29268292682927" cy="286.5853658536586" r="4.878048780487806" fill="black"></circle><circle cx="30.48780487804878" cy="286.5853658536586" r="4.878048780487806" fill="black"></circle><circle cx="115.85365853658536" cy="286.5853658536586" r="4.878048780487806" fill="black"></circle><circle cx="140.2439024390244" cy="286.5853658536586" r="4.878048780487806" fill="black"></circle><circle cx="152.4390243902439" cy="286.5853658536586" r="4.878048780487806" fill="black"></circle><circle cx="201.21951219512195" cy="286.5853658536586" r="4.878048780487806" fill="black"></circle><circle cx="237.8048780487805" cy="286.5853658536586" r="4.878048780487806" fill="black"></circle><circle cx="262.19512195121956" cy="286.5853658536586" r="4.878048780487806" fill="black"></circle><circle cx="274.39024390243907" cy="286.5853658536586" r="4.878048780487806" fill="black"></circle><circle cx="286.5853658536586" cy="286.5853658536586" r="4.878048780487806" fill="black"></circle><circle cx="310.9756097560976" cy="286.5853658536586" r="4.878048780487806" fill="black"></circle><circle cx="323.1707317073171" cy="286.5853658536586" r="4.878048780487806" fill="black"></circle><circle cx="335.3658536585366" cy="286.5853658536586" r="4.878048780487806" fill="black"></circle><circle cx="347.56097560975616" cy="286.5853658536586" r="4.878048780487806" fill="black"></circle><circle cx="384.1463414634147" cy="286.5853658536586" r="4.878048780487806" fill="black"></circle><circle cx="396.3414634146342" cy="286.5853658536586" r="4.878048780487806" fill="black"></circle><circle cx="408.5365853658537" cy="286.5853658536586" r="4.878048780487806" fill="black"></circle><circle cx="420.7317073170732" cy="286.5853658536586" r="4.878048780487806" fill="black"></circle><circle cx="432.9268292682927" cy="286.5853658536586" r="4.878048780487806" fill="black"></circle><circle cx="457.31707317073176" cy="286.5853658536586" r="4.878048780487806" fill="black"></circle><circle cx="481.70731707317077" cy="286.5853658536586" r="4.878048780487806" fill="black"></circle><circle cx="18.29268292682927" cy="298.7804878048781" r="4.878048780487806" fill="black"></circle><circle cx="30.48780487804878" cy="298.7804878048781" r="4.878048780487806" fill="black"></circle><circle cx="42.6829268292683" cy="298.7804878048781" r="4.878048780487806" fill="black"></circle><circle cx="79.26829268292683" cy="298.7804878048781" r="4.878048780487806" fill="black"></circle><circle cx="128.0487804878049" cy="298.7804878048781" r="4.878048780487806" fill="black"></circle><circle cx="152.4390243902439" cy="298.7804878048781" r="4.878048780487806" fill="black"></circle><circle cx="164.6341463414634" cy="298.7804878048781" r="4.878048780487806" fill="black"></circle><circle cx="262.19512195121956" cy="298.7804878048781" r="4.878048780487806" fill="black"></circle><circle cx="274.39024390243907" cy="298.7804878048781" r="4.878048780487806" fill="black"></circle><circle cx="323.1707317073171" cy="298.7804878048781" r="4.878048780487806" fill="black"></circle><circle cx="335.3658536585366" cy="298.7804878048781" r="4.878048780487806" fill="black"></circle><circle cx="359.75609756097566" cy="298.7804878048781" r="4.878048780487806" fill="black"></circle><circle cx="384.1463414634147" cy="298.7804878048781" r="4.878048780487806" fill="black"></circle><circle cx="469.51219512195127" cy="298.7804878048781" r="4.878048780487806" fill="black"></circle><circle cx="481.70731707317077" cy="298.7804878048781" r="4.878048780487806" fill="black"></circle><circle cx="493.9024390243903" cy="298.7804878048781" r="4.878048780487806" fill="black"></circle><circle cx="6.097560975609756" cy="310.9756097560976" r="4.878048780487806" fill="black"></circle><circle cx="18.29268292682927" cy="310.9756097560976" r="4.878048780487806" fill="black"></circle><circle cx="54.8780487804878" cy="310.9756097560976" r="4.878048780487806" fill="black"></circle><circle cx="67.07317073170732" cy="310.9756097560976" r="4.878048780487806" fill="black"></circle><circle cx="91.46341463414635" cy="310.9756097560976" r="4.878048780487806" fill="black"></circle><circle cx="103.65853658536585" cy="310.9756097560976" r="4.878048780487806" fill="black"></circle><circle cx="115.85365853658536" cy="310.9756097560976" r="4.878048780487806" fill="black"></circle><circle cx="140.2439024390244" cy="310.9756097560976" r="4.878048780487806" fill="black"></circle><circle cx="152.4390243902439" cy="310.9756097560976" r="4.878048780487806" fill="black"></circle><circle cx="164.6341463414634" cy="310.9756097560976" r="4.878048780487806" fill="black"></circle><circle cx="176.82926829268294" cy="310.9756097560976" r="4.878048780487806" fill="black"></circle><circle cx="225.60975609756096" cy="310.9756097560976" r="4.878048780487806" fill="black"></circle><circle cx="237.8048780487805" cy="310.9756097560976" r="4.878048780487806" fill="black"></circle><circle cx="262.19512195121956" cy="310.9756097560976" r="4.878048780487806" fill="black"></circle><circle cx="323.1707317073171" cy="310.9756097560976" r="4.878048780487806" fill="black"></circle><circle cx="347.56097560975616" cy="310.9756097560976" r="4.878048780487806" fill="black"></circle><circle cx="359.75609756097566" cy="310.9756097560976" r="4.878048780487806" fill="black"></circle><circle cx="371.95121951219517" cy="310.9756097560976" r="4.878048780487806" fill="black"></circle><circle cx="384.1463414634147" cy="310.9756097560976" r="4.878048780487806" fill="black"></circle><circle cx="408.5365853658537" cy="310.9756097560976" r="4.878048780487806" fill="black"></circle><circle cx="420.7317073170732" cy="310.9756097560976" r="4.878048780487806" fill="black"></circle><circle cx="432.9268292682927" cy="310.9756097560976" r="4.878048780487806" fill="black"></circle><circle cx="445.1219512195122" cy="310.9756097560976" r="4.878048780487806" fill="black"></circle><circle cx="457.31707317073176" cy="310.9756097560976" r="4.878048780487806" fill="black"></circle><circle cx="493.9024390243903" cy="310.9756097560976" r="4.878048780487806" fill="black"></circle><circle cx="42.6829268292683" cy="323.1707317073171" r="4.878048780487806" fill="black"></circle><circle cx="54.8780487804878" cy="323.1707317073171" r="4.878048780487806" fill="black"></circle><circle cx="79.26829268292683" cy="323.1707317073171" r="4.878048780487806" fill="black"></circle><circle cx="91.46341463414635" cy="323.1707317073171" r="4.878048780487806" fill="black"></circle><circle cx="115.85365853658536" cy="323.1707317073171" r="4.878048780487806" fill="black"></circle><circle cx="128.0487804878049" cy="323.1707317073171" r="4.878048780487806" fill="black"></circle><circle cx="164.6341463414634" cy="323.1707317073171" r="4.878048780487806" fill="black"></circle><circle cx="213.41463414634146" cy="323.1707317073171" r="4.878048780487806" fill="black"></circle><circle cx="237.8048780487805" cy="323.1707317073171" r="4.878048780487806" fill="black"></circle><circle cx="262.19512195121956" cy="323.1707317073171" r="4.878048780487806" fill="black"></circle><circle cx="298.7804878048781" cy="323.1707317073171" r="4.878048780487806" fill="black"></circle><circle cx="323.1707317073171" cy="323.1707317073171" r="4.878048780487806" fill="black"></circle><circle cx="335.3658536585366" cy="323.1707317073171" r="4.878048780487806" fill="black"></circle><circle cx="359.75609756097566" cy="323.1707317073171" r="4.878048780487806" fill="black"></circle><circle cx="396.3414634146342" cy="323.1707317073171" r="4.878048780487806" fill="black"></circle><circle cx="420.7317073170732" cy="323.1707317073171" r="4.878048780487806" fill="black"></circle><circle cx="18.29268292682927" cy="335.3658536585366" r="4.878048780487806" fill="black"></circle><circle cx="30.48780487804878" cy="335.3658536585366" r="4.878048780487806" fill="black"></circle><circle cx="42.6829268292683" cy="335.3658536585366" r="4.878048780487806" fill="black"></circle><circle cx="67.07317073170732" cy="335.3658536585366" r="4.878048780487806" fill="black"></circle><circle cx="115.85365853658536" cy="335.3658536585366" r="4.878048780487806" fill="black"></circle><circle cx="128.0487804878049" cy="335.3658536585366" r="4.878048780487806" fill="black"></circle><circle cx="140.2439024390244" cy="335.3658536585366" r="4.878048780487806" fill="black"></circle><circle cx="152.4390243902439" cy="335.3658536585366" r="4.878048780487806" fill="black"></circle><circle cx="164.6341463414634" cy="335.3658536585366" r="4.878048780487806" fill="black"></circle><circle cx="189.02439024390245" cy="335.3658536585366" r="4.878048780487806" fill="black"></circle><circle cx="213.41463414634146" cy="335.3658536585366" r="4.878048780487806" fill="black"></circle><circle cx="225.60975609756096" cy="335.3658536585366" r="4.878048780487806" fill="black"></circle><circle cx="274.39024390243907" cy="335.3658536585366" r="4.878048780487806" fill="black"></circle><circle cx="298.7804878048781" cy="335.3658536585366" r="4.878048780487806" fill="black"></circle><circle cx="347.56097560975616" cy="335.3658536585366" r="4.878048780487806" fill="black"></circle><circle cx="384.1463414634147" cy="335.3658536585366" r="4.878048780487806" fill="black"></circle><circle cx="396.3414634146342" cy="335.3658536585366" r="4.878048780487806" fill="black"></circle><circle cx="408.5365853658537" cy="335.3658536585366" r="4.878048780487806" fill="black"></circle><circle cx="445.1219512195122" cy="335.3658536585366" r="4.878048780487806" fill="black"></circle><circle cx="457.31707317073176" cy="335.3658536585366" r="4.878048780487806" fill="black"></circle><circle cx="481.70731707317077" cy="335.3658536585366" r="4.878048780487806" fill="black"></circle><circle cx="493.9024390243903" cy="335.3658536585366" r="4.878048780487806" fill="black"></circle><circle cx="18.29268292682927" cy="347.56097560975616" r="4.878048780487806" fill="black"></circle><circle cx="30.48780487804878" cy="347.56097560975616" r="4.878048780487806" fill="black"></circle><circle cx="79.26829268292683" cy="347.56097560975616" r="4.878048780487806" fill="black"></circle><circle cx="91.46341463414635" cy="347.56097560975616" r="4.878048780487806" fill="black"></circle><circle cx="103.65853658536585" cy="347.56097560975616" r="4.878048780487806" fill="black"></circle><circle cx="115.85365853658536" cy="347.56097560975616" r="4.878048780487806" fill="black"></circle><circle cx="152.4390243902439" cy="347.56097560975616" r="4.878048780487806" fill="black"></circle><circle cx="213.41463414634146" cy="347.56097560975616" r="4.878048780487806" fill="black"></circle><circle cx="225.60975609756096" cy="347.56097560975616" r="4.878048780487806" fill="black"></circle><circle cx="250" cy="347.56097560975616" r="4.878048780487806" fill="black"></circle><circle cx="286.5853658536586" cy="347.56097560975616" r="4.878048780487806" fill="black"></circle><circle cx="323.1707317073171" cy="347.56097560975616" r="4.878048780487806" fill="black"></circle><circle cx="359.75609756097566" cy="347.56097560975616" r="4.878048780487806" fill="black"></circle><circle cx="384.1463414634147" cy="347.56097560975616" r="4.878048780487806" fill="black"></circle><circle cx="457.31707317073176" cy="347.56097560975616" r="4.878048780487806" fill="black"></circle><circle cx="469.51219512195127" cy="347.56097560975616" r="4.878048780487806" fill="black"></circle><circle cx="493.9024390243903" cy="347.56097560975616" r="4.878048780487806" fill="black"></circle><circle cx="6.097560975609756" cy="359.75609756097566" r="4.878048780487806" fill="black"></circle><circle cx="30.48780487804878" cy="359.75609756097566" r="4.878048780487806" fill="black"></circle><circle cx="42.6829268292683" cy="359.75609756097566" r="4.878048780487806" fill="black"></circle><circle cx="54.8780487804878" cy="359.75609756097566" r="4.878048780487806" fill="black"></circle><circle cx="91.46341463414635" cy="359.75609756097566" r="4.878048780487806" fill="black"></circle><circle cx="103.65853658536585" cy="359.75609756097566" r="4.878048780487806" fill="black"></circle><circle cx="140.2439024390244" cy="359.75609756097566" r="4.878048780487806" fill="black"></circle><circle cx="201.21951219512195" cy="359.75609756097566" r="4.878048780487806" fill="black"></circle><circle cx="225.60975609756096" cy="359.75609756097566" r="4.878048780487806" fill="black"></circle><circle cx="250" cy="359.75609756097566" r="4.878048780487806" fill="black"></circle><circle cx="262.19512195121956" cy="359.75609756097566" r="4.878048780487806" fill="black"></circle><circle cx="310.9756097560976" cy="359.75609756097566" r="4.878048780487806" fill="black"></circle><circle cx="323.1707317073171" cy="359.75609756097566" r="4.878048780487806" fill="black"></circle><circle cx="335.3658536585366" cy="359.75609756097566" r="4.878048780487806" fill="black"></circle><circle cx="384.1463414634147" cy="359.75609756097566" r="4.878048780487806" fill="black"></circle><circle cx="408.5365853658537" cy="359.75609756097566" r="4.878048780487806" fill="black"></circle><circle cx="420.7317073170732" cy="359.75609756097566" r="4.878048780487806" fill="black"></circle><circle cx="432.9268292682927" cy="359.75609756097566" r="4.878048780487806" fill="black"></circle><circle cx="445.1219512195122" cy="359.75609756097566" r="4.878048780487806" fill="black"></circle><circle cx="469.51219512195127" cy="359.75609756097566" r="4.878048780487806" fill="black"></circle><circle cx="481.70731707317077" cy="359.75609756097566" r="4.878048780487806" fill="black"></circle><circle cx="493.9024390243903" cy="359.75609756097566" r="4.878048780487806" fill="black"></circle><circle cx="6.097560975609756" cy="371.95121951219517" r="4.878048780487806" fill="black"></circle><circle cx="30.48780487804878" cy="371.95121951219517" r="4.878048780487806" fill="black"></circle><circle cx="42.6829268292683" cy="371.95121951219517" r="4.878048780487806" fill="black"></circle><circle cx="54.8780487804878" cy="371.95121951219517" r="4.878048780487806" fill="black"></circle><circle cx="79.26829268292683" cy="371.95121951219517" r="4.878048780487806" fill="black"></circle><circle cx="152.4390243902439" cy="371.95121951219517" r="4.878048780487806" fill="black"></circle><circle cx="176.82926829268294" cy="371.95121951219517" r="4.878048780487806" fill="black"></circle><circle cx="225.60975609756096" cy="371.95121951219517" r="4.878048780487806" fill="black"></circle><circle cx="237.8048780487805" cy="371.95121951219517" r="4.878048780487806" fill="black"></circle><circle cx="274.39024390243907" cy="371.95121951219517" r="4.878048780487806" fill="black"></circle><circle cx="335.3658536585366" cy="371.95121951219517" r="4.878048780487806" fill="black"></circle><circle cx="371.95121951219517" cy="371.95121951219517" r="4.878048780487806" fill="black"></circle><circle cx="396.3414634146342" cy="371.95121951219517" r="4.878048780487806" fill="black"></circle><circle cx="408.5365853658537" cy="371.95121951219517" r="4.878048780487806" fill="black"></circle><circle cx="420.7317073170732" cy="371.95121951219517" r="4.878048780487806" fill="black"></circle><circle cx="445.1219512195122" cy="371.95121951219517" r="4.878048780487806" fill="black"></circle><circle cx="457.31707317073176" cy="371.95121951219517" r="4.878048780487806" fill="black"></circle><circle cx="6.097560975609756" cy="384.1463414634147" r="4.878048780487806" fill="black"></circle><circle cx="54.8780487804878" cy="384.1463414634147" r="4.878048780487806" fill="black"></circle><circle cx="115.85365853658536" cy="384.1463414634147" r="4.878048780487806" fill="black"></circle><circle cx="140.2439024390244" cy="384.1463414634147" r="4.878048780487806" fill="black"></circle><circle cx="152.4390243902439" cy="384.1463414634147" r="4.878048780487806" fill="black"></circle><circle cx="201.21951219512195" cy="384.1463414634147" r="4.878048780487806" fill="black"></circle><circle cx="213.41463414634146" cy="384.1463414634147" r="4.878048780487806" fill="black"></circle><circle cx="250" cy="384.1463414634147" r="4.878048780487806" fill="black"></circle><circle cx="298.7804878048781" cy="384.1463414634147" r="4.878048780487806" fill="black"></circle><circle cx="323.1707317073171" cy="384.1463414634147" r="4.878048780487806" fill="black"></circle><circle cx="396.3414634146342" cy="384.1463414634147" r="4.878048780487806" fill="black"></circle><circle cx="408.5365853658537" cy="384.1463414634147" r="4.878048780487806" fill="black"></circle><circle cx="420.7317073170732" cy="384.1463414634147" r="4.878048780487806" fill="black"></circle><circle cx="432.9268292682927" cy="384.1463414634147" r="4.878048780487806" fill="black"></circle><circle cx="445.1219512195122" cy="384.1463414634147" r="4.878048780487806" fill="black"></circle><circle cx="457.31707317073176" cy="384.1463414634147" r="4.878048780487806" fill="black"></circle><circle cx="481.70731707317077" cy="384.1463414634147" r="4.878048780487806" fill="black"></circle><circle cx="6.097560975609756" cy="396.3414634146342" r="4.878048780487806" fill="black"></circle><circle cx="42.6829268292683" cy="396.3414634146342" r="4.878048780487806" fill="black"></circle><circle cx="54.8780487804878" cy="396.3414634146342" r="4.878048780487806" fill="black"></circle><circle cx="67.07317073170732" cy="396.3414634146342" r="4.878048780487806" fill="black"></circle><circle cx="79.26829268292683" cy="396.3414634146342" r="4.878048780487806" fill="black"></circle><circle cx="91.46341463414635" cy="396.3414634146342" r="4.878048780487806" fill="black"></circle><circle cx="115.85365853658536" cy="396.3414634146342" r="4.878048780487806" fill="black"></circle><circle cx="128.0487804878049" cy="396.3414634146342" r="4.878048780487806" fill="black"></circle><circle cx="274.39024390243907" cy="396.3414634146342" r="4.878048780487806" fill="black"></circle><circle cx="298.7804878048781" cy="396.3414634146342" r="4.878048780487806" fill="black"></circle><circle cx="323.1707317073171" cy="396.3414634146342" r="4.878048780487806" fill="black"></circle><circle cx="335.3658536585366" cy="396.3414634146342" r="4.878048780487806" fill="black"></circle><circle cx="359.75609756097566" cy="396.3414634146342" r="4.878048780487806" fill="black"></circle><circle cx="396.3414634146342" cy="396.3414634146342" r="4.878048780487806" fill="black"></circle><circle cx="408.5365853658537" cy="396.3414634146342" r="4.878048780487806" fill="black"></circle><circle cx="420.7317073170732" cy="396.3414634146342" r="4.878048780487806" fill="black"></circle><circle cx="432.9268292682927" cy="396.3414634146342" r="4.878048780487806" fill="black"></circle><circle cx="445.1219512195122" cy="396.3414634146342" r="4.878048780487806" fill="black"></circle><circle cx="457.31707317073176" cy="396.3414634146342" r="4.878048780487806" fill="black"></circle><circle cx="469.51219512195127" cy="396.3414634146342" r="4.878048780487806" fill="black"></circle><circle cx="481.70731707317077" cy="396.3414634146342" r="4.878048780487806" fill="black"></circle><circle cx="493.9024390243903" cy="396.3414634146342" r="4.878048780487806" fill="black"></circle><circle cx="103.65853658536585" cy="408.5365853658537" r="4.878048780487806" fill="black"></circle><circle cx="140.2439024390244" cy="408.5365853658537" r="4.878048780487806" fill="black"></circle><circle cx="176.82926829268294" cy="408.5365853658537" r="4.878048780487806" fill="black"></circle><circle cx="189.02439024390245" cy="408.5365853658537" r="4.878048780487806" fill="black"></circle><circle cx="201.21951219512195" cy="408.5365853658537" r="4.878048780487806" fill="black"></circle><circle cx="225.60975609756096" cy="408.5365853658537" r="4.878048780487806" fill="black"></circle><circle cx="237.8048780487805" cy="408.5365853658537" r="4.878048780487806" fill="black"></circle><circle cx="250" cy="408.5365853658537" r="4.878048780487806" fill="black"></circle><circle cx="262.19512195121956" cy="408.5365853658537" r="4.878048780487806" fill="black"></circle><circle cx="310.9756097560976" cy="408.5365853658537" r="4.878048780487806" fill="black"></circle><circle cx="323.1707317073171" cy="408.5365853658537" r="4.878048780487806" fill="black"></circle><circle cx="347.56097560975616" cy="408.5365853658537" r="4.878048780487806" fill="black"></circle><circle cx="371.95121951219517" cy="408.5365853658537" r="4.878048780487806" fill="black"></circle><circle cx="396.3414634146342" cy="408.5365853658537" r="4.878048780487806" fill="black"></circle><circle cx="445.1219512195122" cy="408.5365853658537" r="4.878048780487806" fill="black"></circle><circle cx="457.31707317073176" cy="408.5365853658537" r="4.878048780487806" fill="black"></circle><circle cx="481.70731707317077" cy="408.5365853658537" r="4.878048780487806" fill="black"></circle><circle cx="493.9024390243903" cy="408.5365853658537" r="4.878048780487806" fill="black"></circle><rect x="0" y="414.6341463414634" width="12.195121951219512" height="12.195121951219512" fill="black"></rect><rect x="12.195121951219512" y="414.6341463414634" width="12.195121951219512" height="12.195121951219512" fill="black"></rect><rect x="24.390243902439025" y="414.6341463414634" width="12.195121951219512" height="12.195121951219512" fill="black"></rect><rect x="36.58536585365854" y="414.6341463414634" width="12.195121951219512" height="12.195121951219512" fill="black"></rect><rect x="48.78048780487805" y="414.6341463414634" width="12.195121951219512" height="12.195121951219512" fill="black"></rect><rect x="60.97560975609756" y="414.6341463414634" width="12.195121951219512" height="12.195121951219512" fill="black"></rect><rect x="73.17073170731707" y="414.6341463414634" width="12.195121951219512" height="12.195121951219512" fill="black"></rect><circle cx="128.0487804878049" cy="420.7317073170732" r="4.878048780487806" fill="black"></circle><circle cx="176.82926829268294" cy="420.7317073170732" r="4.878048780487806" fill="black"></circle><circle cx="189.02439024390245" cy="420.7317073170732" r="4.878048780487806" fill="black"></circle><circle cx="201.21951219512195" cy="420.7317073170732" r="4.878048780487806" fill="black"></circle><circle cx="213.41463414634146" cy="420.7317073170732" r="4.878048780487806" fill="black"></circle><circle cx="237.8048780487805" cy="420.7317073170732" r="4.878048780487806" fill="black"></circle><circle cx="250" cy="420.7317073170732" r="4.878048780487806" fill="black"></circle><circle cx="286.5853658536586" cy="420.7317073170732" r="4.878048780487806" fill="black"></circle><circle cx="323.1707317073171" cy="420.7317073170732" r="4.878048780487806" fill="black"></circle><circle cx="335.3658536585366" cy="420.7317073170732" r="4.878048780487806" fill="black"></circle><circle cx="384.1463414634147" cy="420.7317073170732" r="4.878048780487806" fill="black"></circle><circle cx="396.3414634146342" cy="420.7317073170732" r="4.878048780487806" fill="black"></circle><circle cx="420.7317073170732" cy="420.7317073170732" r="4.878048780487806" fill="black"></circle><circle cx="445.1219512195122" cy="420.7317073170732" r="4.878048780487806" fill="black"></circle><circle cx="481.70731707317077" cy="420.7317073170732" r="4.878048780487806" fill="black"></circle><rect x="0" y="426.8292682926829" width="12.195121951219512" height="12.195121951219512" fill="black"></rect><rect x="73.17073170731707" y="426.8292682926829" width="12.195121951219512" height="12.195121951219512" fill="black"></rect><circle cx="115.85365853658536" cy="432.9268292682927" r="4.878048780487806" fill="black"></circle><circle cx="140.2439024390244" cy="432.9268292682927" r="4.878048780487806" fill="black"></circle><circle cx="164.6341463414634" cy="432.9268292682927" r="4.878048780487806" fill="black"></circle><circle cx="225.60975609756096" cy="432.9268292682927" r="4.878048780487806" fill="black"></circle><circle cx="237.8048780487805" cy="432.9268292682927" r="4.878048780487806" fill="black"></circle><circle cx="250" cy="432.9268292682927" r="4.878048780487806" fill="black"></circle><circle cx="262.19512195121956" cy="432.9268292682927" r="4.878048780487806" fill="black"></circle><circle cx="286.5853658536586" cy="432.9268292682927" r="4.878048780487806" fill="black"></circle><circle cx="298.7804878048781" cy="432.9268292682927" r="4.878048780487806" fill="black"></circle><circle cx="335.3658536585366" cy="432.9268292682927" r="4.878048780487806" fill="black"></circle><circle cx="347.56097560975616" cy="432.9268292682927" r="4.878048780487806" fill="black"></circle><circle cx="396.3414634146342" cy="432.9268292682927" r="4.878048780487806" fill="black"></circle><circle cx="445.1219512195122" cy="432.9268292682927" r="4.878048780487806" fill="black"></circle><circle cx="457.31707317073176" cy="432.9268292682927" r="4.878048780487806" fill="black"></circle><rect x="0" y="439.0243902439024" width="12.195121951219512" height="12.195121951219512" fill="black"></rect><rect x="24.390243902439025" y="439.0243902439024" width="12.195121951219512" height="12.195121951219512" fill="black"></rect><rect x="36.58536585365854" y="439.0243902439024" width="12.195121951219512" height="12.195121951219512" fill="black"></rect><rect x="48.78048780487805" y="439.0243902439024" width="12.195121951219512" height="12.195121951219512" fill="black"></rect><rect x="73.17073170731707" y="439.0243902439024" width="12.195121951219512" height="12.195121951219512" fill="black"></rect><circle cx="103.65853658536585" cy="445.1219512195122" r="4.878048780487806" fill="black"></circle><circle cx="128.0487804878049" cy="445.1219512195122" r="4.878048780487806" fill="black"></circle><circle cx="140.2439024390244" cy="445.1219512195122" r="4.878048780487806" fill="black"></circle><circle cx="164.6341463414634" cy="445.1219512195122" r="4.878048780487806" fill="black"></circle><circle cx="176.82926829268294" cy="445.1219512195122" r="4.878048780487806" fill="black"></circle><circle cx="189.02439024390245" cy="445.1219512195122" r="4.878048780487806" fill="black"></circle><circle cx="201.21951219512195" cy="445.1219512195122" r="4.878048780487806" fill="black"></circle><circle cx="237.8048780487805" cy="445.1219512195122" r="4.878048780487806" fill="black"></circle><circle cx="262.19512195121956" cy="445.1219512195122" r="4.878048780487806" fill="black"></circle><circle cx="274.39024390243907" cy="445.1219512195122" r="4.878048780487806" fill="black"></circle><circle cx="286.5853658536586" cy="445.1219512195122" r="4.878048780487806" fill="black"></circle><circle cx="298.7804878048781" cy="445.1219512195122" r="4.878048780487806" fill="black"></circle><circle cx="323.1707317073171" cy="445.1219512195122" r="4.878048780487806" fill="black"></circle><circle cx="335.3658536585366" cy="445.1219512195122" r="4.878048780487806" fill="black"></circle><circle cx="359.75609756097566" cy="445.1219512195122" r="4.878048780487806" fill="black"></circle><circle cx="396.3414634146342" cy="445.1219512195122" r="4.878048780487806" fill="black"></circle><circle cx="408.5365853658537" cy="445.1219512195122" r="4.878048780487806" fill="black"></circle><circle cx="420.7317073170732" cy="445.1219512195122" r="4.878048780487806" fill="black"></circle><circle cx="432.9268292682927" cy="445.1219512195122" r="4.878048780487806" fill="black"></circle><circle cx="445.1219512195122" cy="445.1219512195122" r="4.878048780487806" fill="black"></circle><circle cx="457.31707317073176" cy="445.1219512195122" r="4.878048780487806" fill="black"></circle><circle cx="469.51219512195127" cy="445.1219512195122" r="4.878048780487806" fill="black"></circle><circle cx="481.70731707317077" cy="445.1219512195122" r="4.878048780487806" fill="black"></circle><rect x="0" y="451.219512195122" width="12.195121951219512" height="12.195121951219512" fill="black"></rect><rect x="24.390243902439025" y="451.219512195122" width="12.195121951219512" height="12.195121951219512" fill="black"></rect><rect x="36.58536585365854" y="451.219512195122" width="12.195121951219512" height="12.195121951219512" fill="black"></rect><rect x="48.78048780487805" y="451.219512195122" width="12.195121951219512" height="12.195121951219512" fill="black"></rect><rect x="73.17073170731707" y="451.219512195122" width="12.195121951219512" height="12.195121951219512" fill="black"></rect><circle cx="103.65853658536585" cy="457.31707317073176" r="4.878048780487806" fill="black"></circle><circle cx="115.85365853658536" cy="457.31707317073176" r="4.878048780487806" fill="black"></circle><circle cx="140.2439024390244" cy="457.31707317073176" r="4.878048780487806" fill="black"></circle><circle cx="164.6341463414634" cy="457.31707317073176" r="4.878048780487806" fill="black"></circle><circle cx="176.82926829268294" cy="457.31707317073176" r="4.878048780487806" fill="black"></circle><circle cx="189.02439024390245" cy="457.31707317073176" r="4.878048780487806" fill="black"></circle><circle cx="225.60975609756096" cy="457.31707317073176" r="4.878048780487806" fill="black"></circle><circle cx="237.8048780487805" cy="457.31707317073176" r="4.878048780487806" fill="black"></circle><circle cx="250" cy="457.31707317073176" r="4.878048780487806" fill="black"></circle><circle cx="262.19512195121956" cy="457.31707317073176" r="4.878048780487806" fill="black"></circle><circle cx="286.5853658536586" cy="457.31707317073176" r="4.878048780487806" fill="black"></circle><circle cx="310.9756097560976" cy="457.31707317073176" r="4.878048780487806" fill="black"></circle><circle cx="347.56097560975616" cy="457.31707317073176" r="4.878048780487806" fill="black"></circle><circle cx="359.75609756097566" cy="457.31707317073176" r="4.878048780487806" fill="black"></circle><circle cx="384.1463414634147" cy="457.31707317073176" r="4.878048780487806" fill="black"></circle><circle cx="408.5365853658537" cy="457.31707317073176" r="4.878048780487806" fill="black"></circle><circle cx="432.9268292682927" cy="457.31707317073176" r="4.878048780487806" fill="black"></circle><circle cx="457.31707317073176" cy="457.31707317073176" r="4.878048780487806" fill="black"></circle><circle cx="493.9024390243903" cy="457.31707317073176" r="4.878048780487806" fill="black"></circle><rect x="0" y="463.4146341463415" width="12.195121951219512" height="12.195121951219512" fill="black"></rect><rect x="24.390243902439025" y="463.4146341463415" width="12.195121951219512" height="12.195121951219512" fill="black"></rect><rect x="36.58536585365854" y="463.4146341463415" width="12.195121951219512" height="12.195121951219512" fill="black"></rect><rect x="48.78048780487805" y="463.4146341463415" width="12.195121951219512" height="12.195121951219512" fill="black"></rect><rect x="73.17073170731707" y="463.4146341463415" width="12.195121951219512" height="12.195121951219512" fill="black"></rect><circle cx="103.65853658536585" cy="469.51219512195127" r="4.878048780487806" fill="black"></circle><circle cx="115.85365853658536" cy="469.51219512195127" r="4.878048780487806" fill="black"></circle><circle cx="176.82926829268294" cy="469.51219512195127" r="4.878048780487806" fill="black"></circle><circle cx="189.02439024390245" cy="469.51219512195127" r="4.878048780487806" fill="black"></circle><circle cx="201.21951219512195" cy="469.51219512195127" r="4.878048780487806" fill="black"></circle><circle cx="237.8048780487805" cy="469.51219512195127" r="4.878048780487806" fill="black"></circle><circle cx="262.19512195121956" cy="469.51219512195127" r="4.878048780487806" fill="black"></circle><circle cx="274.39024390243907" cy="469.51219512195127" r="4.878048780487806" fill="black"></circle><circle cx="310.9756097560976" cy="469.51219512195127" r="4.878048780487806" fill="black"></circle><circle cx="335.3658536585366" cy="469.51219512195127" r="4.878048780487806" fill="black"></circle><circle cx="359.75609756097566" cy="469.51219512195127" r="4.878048780487806" fill="black"></circle><circle cx="384.1463414634147" cy="469.51219512195127" r="4.878048780487806" fill="black"></circle><circle cx="408.5365853658537" cy="469.51219512195127" r="4.878048780487806" fill="black"></circle><circle cx="420.7317073170732" cy="469.51219512195127" r="4.878048780487806" fill="black"></circle><circle cx="432.9268292682927" cy="469.51219512195127" r="4.878048780487806" fill="black"></circle><circle cx="445.1219512195122" cy="469.51219512195127" r="4.878048780487806" fill="black"></circle><circle cx="457.31707317073176" cy="469.51219512195127" r="4.878048780487806" fill="black"></circle><circle cx="481.70731707317077" cy="469.51219512195127" r="4.878048780487806" fill="black"></circle><rect x="0" y="475.609756097561" width="12.195121951219512" height="12.195121951219512" fill="black"></rect><rect x="73.17073170731707" y="475.609756097561" width="12.195121951219512" height="12.195121951219512" fill="black"></rect><circle cx="115.85365853658536" cy="481.70731707317077" r="4.878048780487806" fill="black"></circle><circle cx="140.2439024390244" cy="481.70731707317077" r="4.878048780487806" fill="black"></circle><circle cx="152.4390243902439" cy="481.70731707317077" r="4.878048780487806" fill="black"></circle><circle cx="176.82926829268294" cy="481.70731707317077" r="4.878048780487806" fill="black"></circle><circle cx="189.02439024390245" cy="481.70731707317077" r="4.878048780487806" fill="black"></circle><circle cx="201.21951219512195" cy="481.70731707317077" r="4.878048780487806" fill="black"></circle><circle cx="237.8048780487805" cy="481.70731707317077" r="4.878048780487806" fill="black"></circle><circle cx="262.19512195121956" cy="481.70731707317077" r="4.878048780487806" fill="black"></circle><circle cx="274.39024390243907" cy="481.70731707317077" r="4.878048780487806" fill="black"></circle><circle cx="298.7804878048781" cy="481.70731707317077" r="4.878048780487806" fill="black"></circle><circle cx="323.1707317073171" cy="481.70731707317077" r="4.878048780487806" fill="black"></circle><circle cx="335.3658536585366" cy="481.70731707317077" r="4.878048780487806" fill="black"></circle><circle cx="347.56097560975616" cy="481.70731707317077" r="4.878048780487806" fill="black"></circle><circle cx="396.3414634146342" cy="481.70731707317077" r="4.878048780487806" fill="black"></circle><circle cx="408.5365853658537" cy="481.70731707317077" r="4.878048780487806" fill="black"></circle><circle cx="445.1219512195122" cy="481.70731707317077" r="4.878048780487806" fill="black"></circle><circle cx="457.31707317073176" cy="481.70731707317077" r="4.878048780487806" fill="black"></circle><circle cx="481.70731707317077" cy="481.70731707317077" r="4.878048780487806" fill="black"></circle><rect x="0" y="487.8048780487805" width="12.195121951219512" height="12.195121951219512" fill="black"></rect><rect x="12.195121951219512" y="487.8048780487805" width="12.195121951219512" height="12.195121951219512" fill="black"></rect><rect x="24.390243902439025" y="487.8048780487805" width="12.195121951219512" height="12.195121951219512" fill="black"></rect><rect x="36.58536585365854" y="487.8048780487805" width="12.195121951219512" height="12.195121951219512" fill="black"></rect><rect x="48.78048780487805" y="487.8048780487805" width="12.195121951219512" height="12.195121951219512" fill="black"></rect><rect x="60.97560975609756" y="487.8048780487805" width="12.195121951219512" height="12.195121951219512" fill="black"></rect><rect x="73.17073170731707" y="487.8048780487805" width="12.195121951219512" height="12.195121951219512" fill="black"></rect><circle cx="115.85365853658536" cy="493.9024390243903" r="4.878048780487806" fill="black"></circle><circle cx="152.4390243902439" cy="493.9024390243903" r="4.878048780487806" fill="black"></circle><circle cx="164.6341463414634" cy="493.9024390243903" r="4.878048780487806" fill="black"></circle><circle cx="176.82926829268294" cy="493.9024390243903" r="4.878048780487806" fill="black"></circle><circle cx="213.41463414634146" cy="493.9024390243903" r="4.878048780487806" fill="black"></circle><circle cx="225.60975609756096" cy="493.9024390243903" r="4.878048780487806" fill="black"></circle><circle cx="237.8048780487805" cy="493.9024390243903" r="4.878048780487806" fill="black"></circle><circle cx="250" cy="493.9024390243903" r="4.878048780487806" fill="black"></circle><circle cx="262.19512195121956" cy="493.9024390243903" r="4.878048780487806" fill="black"></circle><circle cx="274.39024390243907" cy="493.9024390243903" r="4.878048780487806" fill="black"></circle><circle cx="310.9756097560976" cy="493.9024390243903" r="4.878048780487806" fill="black"></circle><circle cx="335.3658536585366" cy="493.9024390243903" r="4.878048780487806" fill="black"></circle><circle cx="359.75609756097566" cy="493.9024390243903" r="4.878048780487806" fill="black"></circle><circle cx="408.5365853658537" cy="493.9024390243903" r="4.878048780487806" fill="black"></circle><circle cx="420.7317073170732" cy="493.9024390243903" r="4.878048780487806" fill="black"></circle><circle cx="432.9268292682927" cy="493.9024390243903" r="4.878048780487806" fill="black"></circle><circle cx="445.1219512195122" cy="493.9024390243903" r="4.878048780487806" fill="black"></circle><circle cx="469.51219512195127" cy="493.9024390243903" r="4.878048780487806" fill="black"></circle></svg>